<?xml version="1.0" encoding="UTF-8" standalone="no"?>
<!-- Created with Inkscape (http://www.inkscape.org/) -->

<svg
   xmlns:dc="http://purl.org/dc/elements/1.1/"
   xmlns:cc="http://creativecommons.org/ns#"
   xmlns:rdf="http://www.w3.org/1999/02/22-rdf-syntax-ns#"
   xmlns:svg="http://www.w3.org/2000/svg"
   xmlns="http://www.w3.org/2000/svg"
   xmlns:sodipodi="http://sodipodi.sourceforge.net/DTD/sodipodi-0.dtd"
   xmlns:inkscape="http://www.inkscape.org/namespaces/inkscape"
   width="24"
   height="24"
   id="svg2"
   version="1.1"
   inkscape:version="0.48.5 r10040"
   sodipodi:docname="info.svg">
  <defs
     id="defs4" />
  <sodipodi:namedview
     id="base"
     pagecolor="#ffffff"
     bordercolor="#666666"
     borderopacity="1.0"
     inkscape:pageopacity="0.0"
     inkscape:pageshadow="2"
     inkscape:zoom="22.4"
     inkscape:cx="8.947893"
     inkscape:cy="12.460222"
     inkscape:document-units="px"
     inkscape:current-layer="layer1"
     showgrid="false"
     inkscape:window-width="1228"
     inkscape:window-height="822"
     inkscape:window-x="2500"
     inkscape:window-y="82"
     inkscape:window-maximized="0" />
  <metadata
     id="metadata7">
    <rdf:RDF>
      <cc:Work
         rdf:about="">
        <dc:format>image/svg+xml</dc:format>
        <dc:type
           rdf:resource="http://purl.org/dc/dcmitype/StillImage" />
        <dc:title></dc:title>
      </cc:Work>
    </rdf:RDF>
  </metadata>
  <g
     inkscape:label="Layer 1"
     inkscape:groupmode="layer"
     id="layer1"
     transform="translate(0,-1028.3622)">
    <path
       style="fill:#b9b9b9;fill-opacity:1;stroke:none"
       d="m 12,1028.3622 c -6.6248445,0 -12,5.3824 -12,12.0164 0,6.6338 5.3751555,11.9836 12,11.9836 6.624844,0 12,-5.3498 12,-11.9836 0,-6.634 -5.375156,-12.0164 -12,-12.0164 z m 0,4.2122 c 1.170603,0 2.119565,0.9502 2.119565,2.1225 0,1.1722 -0.948962,2.1224 -2.119565,2.1224 -1.170603,0 -2.1195652,-0.9502 -2.1195652,-2.1224 0,-1.1723 0.9489622,-2.1225 2.1195652,-2.1225 z m -3.0978261,5.1919 5.1521741,0 0,7.9021 c 0,0.5363 2.119565,0.4571 2.119565,0.4571 l 0,1.0449 -7.3043478,0 0,-0.9796 c 0,0 2.1847828,-0.098 2.1847828,-0.5877 l 0,-5.5838 c 0,-1.0496 -2.1521741,-1.3714 -2.1521741,-1.3714 l 0,-0.8816 z"
       id="path2998"
       inkscape:connector-curvature="0" />
  </g>
</svg>
