<?xml version="1.0" encoding="UTF-8" standalone="no"?>
<!-- Created with Inkscape (http://www.inkscape.org/) -->

<svg
   xmlns:dc="http://purl.org/dc/elements/1.1/"
   xmlns:cc="http://creativecommons.org/ns#"
   xmlns:rdf="http://www.w3.org/1999/02/22-rdf-syntax-ns#"
   xmlns:svg="http://www.w3.org/2000/svg"
   xmlns="http://www.w3.org/2000/svg"
   xmlns:sodipodi="http://sodipodi.sourceforge.net/DTD/sodipodi-0.dtd"
   xmlns:inkscape="http://www.inkscape.org/namespaces/inkscape"
   width="24"
   height="24"
   id="svg3774"
   version="1.1"
   inkscape:version="0.48.5 r10040"
   sodipodi:docname="licenses.svg">
  <defs
     id="defs3776" />
  <sodipodi:namedview
     id="base"
     pagecolor="#ffffff"
     bordercolor="#666666"
     borderopacity="1.0"
     inkscape:pageopacity="0.0"
     inkscape:pageshadow="2"
     inkscape:zoom="22.4"
     inkscape:cx="11.475525"
     inkscape:cy="13.478777"
     inkscape:document-units="px"
     inkscape:current-layer="layer1"
     showgrid="false"
     inkscape:window-width="758"
     inkscape:window-height="673"
     inkscape:window-x="2988"
     inkscape:window-y="112"
     inkscape:window-maximized="0" />
  <metadata
     id="metadata3779">
    <rdf:RDF>
      <cc:Work
         rdf:about="">
        <dc:format>image/svg+xml</dc:format>
        <dc:type
           rdf:resource="http://purl.org/dc/dcmitype/StillImage" />
        <dc:title></dc:title>
      </cc:Work>
    </rdf:RDF>
  </metadata>
  <g
     inkscape:label="Layer 1"
     inkscape:groupmode="layer"
     id="layer1"
     transform="translate(0,-1028.3622)">
    <path
       style="fill:#b9b9b9;fill-opacity:1;stroke:none"
       d="m 2,0 0,23.5 20,0 L 22,7.84375 16.03125,0 z m 13,1 0.5,0 0,7.5 5.5,0 L 21,9 15.5,9 15,9 15,8.5 z m -10,12.5 14,0 0,0.5 -14,0 z m 0,1.5 14,0 0,0.5 -14,0 z m 0,1.5 14,0 0,0.5 -14,0 z m 0,1.5 14,0 0,0.5 -14,0 z m 0,1.5 14,0 0,0.5 -14,0 z"
       transform="translate(0,1028.3622)"
       id="rect3837"
       inkscape:connector-curvature="0"
       sodipodi:nodetypes="cccccccccccccccccccccccccccccccccccccccc" />
  </g>
</svg>
