<?xml version="1.0" encoding="UTF-8" standalone="no"?>
<!-- Created with Inkscape (http://www.inkscape.org/) -->

<svg
   xmlns:dc="http://purl.org/dc/elements/1.1/"
   xmlns:cc="http://creativecommons.org/ns#"
   xmlns:rdf="http://www.w3.org/1999/02/22-rdf-syntax-ns#"
   xmlns:svg="http://www.w3.org/2000/svg"
   xmlns="http://www.w3.org/2000/svg"
   xmlns:sodipodi="http://sodipodi.sourceforge.net/DTD/sodipodi-0.dtd"
   xmlns:inkscape="http://www.inkscape.org/namespaces/inkscape"
   width="24"
   height="24"
   id="svg2"
   version="1.1"
   inkscape:version="0.48.5 r10040"
   sodipodi:docname="locate.svg"
   inkscape:export-filename="/Users/agrif/devel/iphoneos/osubus/Resources/Icons/locate-active.png"
   inkscape:export-xdpi="90"
   inkscape:export-ydpi="90">
  <defs
     id="defs4" />
  <sodipodi:namedview
     id="base"
     pagecolor="#ffffff"
     bordercolor="#666666"
     borderopacity="1.0"
     inkscape:pageopacity="0.0"
     inkscape:pageshadow="2"
     inkscape:zoom="14.672466"
     inkscape:cx="-1.2220448"
     inkscape:cy="11.198335"
     inkscape:document-units="px"
     inkscape:current-layer="layer1"
     showgrid="false"
     inkscape:window-width="1013"
     inkscape:window-height="644"
     inkscape:window-x="241"
     inkscape:window-y="7"
     inkscape:window-maximized="0"
     showguides="true"
     inkscape:guide-bbox="true" />
  <metadata
     id="metadata7">
    <rdf:RDF>
      <cc:Work
         rdf:about="">
        <dc:format>image/svg+xml</dc:format>
        <dc:type
           rdf:resource="http://purl.org/dc/dcmitype/StillImage" />
        <dc:title />
      </cc:Work>
    </rdf:RDF>
  </metadata>
  <g
     inkscape:label="Layer 1"
     inkscape:groupmode="layer"
     id="layer1"
     transform="translate(0,-1028.3622)">
    <path
       style="opacity:1;fill:#808080;fill-opacity:1;fill-rule:evenodd;stroke:none"
       d="m 12,1028.3622 c -6.6274171,0 -12,5.3726 -12,12 0,6.6274 5.3725829,12 12,12 6.627418,0 12,-5.3726 12,-12 0,-6.6274 -5.372582,-12 -12,-12 z m -1.2,2.475 0,4.725 2.4,0 0,-4.725 c 4.338733,0.5431 7.781827,3.9863 8.325,8.325 l -4.725,0 0,2.4 4.725,0 c -0.543173,4.3387 -3.986267,7.7819 -8.325,8.325 l 0,-4.725 -2.4,0 0,4.725 c -4.338733,-0.5431 -7.7818273,-3.9863 -8.325,-8.325 l 4.725,0 0,-2.4 -4.725,0 c 0.5431727,-4.3387 3.986267,-7.7819 8.325,-8.325 z"
       id="active"
       inkscape:connector-curvature="0" />
    <path
       inkscape:connector-curvature="0"
       id="inactive"
       d="m 12,1028.3622 c -6.6274171,0 -12,5.3726 -12,12 0,6.6274 5.3725829,12 12,12 6.627418,0 12,-5.3726 12,-12 0,-6.6274 -5.372582,-12 -12,-12 z m -1.2,2.475 0,4.725 2.4,0 0,-4.725 c 4.338733,0.5431 7.781827,3.9863 8.325,8.325 l -4.725,0 0,2.4 4.725,0 c -0.543173,4.3387 -3.986267,7.7819 -8.325,8.325 l 0,-4.725 -2.4,0 0,4.725 c -4.338733,-0.5431 -7.7818273,-3.9863 -8.325,-8.325 l 4.725,0 0,-2.4 -4.725,0 c 0.5431727,-4.3387 3.986267,-7.7819 8.325,-8.325 z"
       style="opacity:1;fill:#c0c0c0;fill-opacity:1;fill-rule:evenodd;stroke:none" />
  </g>
</svg>
